<?xml version="1.0" encoding="UTF-8" standalone="no"?><svg width="700" height="1000" viewBox="0 0 699.99999 1000" version="1.1" id="svg5" sodipodi:docname="template.svg" inkscape:version="1.3 (0e150ed6c4, 2023-07-21)" xmlns:inkscape="http://www.inkscape.org/namespaces/inkscape" xmlns:sodipodi="http://sodipodi.sourceforge.net/DTD/sodipodi-0.dtd" xmlns="http://www.w3.org/2000/svg" xmlns:svg="http://www.w3.org/2000/svg">
  <defs id="defs1"></defs>
  <sodipodi:namedview id="namedview1" pagecolor="#ffffff" bordercolor="#000000" borderopacity="0.25" inkscape:showpageshadow="2" inkscape:pageopacity="0.0" inkscape:pagecheckerboard="0" inkscape:deskcolor="#d1d1d1" inkscape:zoom="0.54941075" inkscape:cx="99.197186" inkscape:cy="610.65424" inkscape:window-width="1920" inkscape:window-height="1094" inkscape:window-x="-11" inkscape:window-y="-11" inkscape:window-maximized="1" inkscape:current-layer="svg5"></sodipodi:namedview>
  <path id="seg1" style="fill:#ff00ff;fill-opacity:0.533333;stroke:#000000;stroke-width:4.19375" d="m 313.37932,419.93091 c 27.23877,-55.48685 54.64325,-110.89458 81.94576,-166.351 4.39645,-10.90719 12.69764,-20.95676 24.75965,-23.37539 13.68891,-3.88063 25.7709,4.72526 37.56382,10.21188 16.82922,6.24452 25.95008,27.18392 18.29715,43.58645 -27.23876,55.48685 -54.64325,110.89458 -81.94575,166.351 -4.52409,11.42519 -13.57881,21.76816 -26.29511,23.69882 -14.30576,3.08427 -26.38489,-6.44823 -38.74667,-11.87515 -15.39188,-7.1825 -22.62462,-26.80271 -15.57885,-42.24661 z" sodipodi:nodetypes="ccccccccc"></path>
  
  
  
  
  
  
  
  <path id="seg9" style="fill:#ff00ff;fill-opacity:0.533333;stroke:#000000;stroke-width:4.19375" d="m 462.36778,716.17753 c -12.36178,5.42692 -24.44091,14.95942 -38.74666,11.87515 -12.71631,-1.93066 -21.77102,-12.27363 -26.29511,-23.69882 -27.30251,-55.45642 -54.707,-110.86416 -81.94576,-166.35101 -7.65292,-16.40253 1.46794,-37.34192 18.29715,-43.58644 11.79292,-5.48662 23.87491,-14.09251 37.56382,-10.21188 12.06201,2.41862 20.36321,12.46819 24.75965,23.37538 27.30251,55.45642 54.707,110.86415 81.94576,166.351 7.04577,15.4439 -0.18697,35.06411 -15.57885,42.24662 z"></path>
  <path id="seg10" style="fill:#ff00ff;fill-opacity:0.533333;stroke:#000000;stroke-width:4.19375" d="m 507.90314,464.79036 c -0.43146,14.91953 2.78786,32.20219 -9.55467,43.55811 -12.85123,13.37639 -32.06402,8.67836 -48.55901,9.55467 -107.44896,-0.11187 -214.90913,0.2239 -322.35106,-0.16818 -37.487608,-2.59811 -36.399644,-64.23212 -17.46743,-78.19061 13.35739,-11.03194 31.22558,-6.47667 47.08691,-7.44749 107.16651,0.11186 214.34424,-0.2239 321.50372,0.16818 16.28344,1.32438 29.68832,16.18772 29.34154,32.52532 z" sodipodi:nodetypes="cccccccc"></path>
  <path id="rect1-5" style="fill:#ff00ff;fill-opacity:0.533333;stroke:#000000;stroke-width:3.67376" d="m 59.605469,143.02094 v 7.07865 L 59.036678,822 H 67.16495 L 67.613281,150.25 H 519.90234 c 1.07633,0 1.94336,-0.86508 1.94336,-1.94141 v -3.24023 c 0,-1.07632 -0.86703,-1.94141 -1.94336,-1.94141 z" sodipodi:nodetypes="cccccssscc"></path>
  <path id="path3" style="fill:#ff00ff;fill-opacity:0.533333;stroke:#000000;stroke-width:3.67376" d="m 561.27535,815.99958 v -7.07865 l 0.56879,-671.90041 h -8.12827 l -0.44833,671.75 H 100.97848 c -1.076326,0 -1.943356,0.86508 -1.943356,1.94141 v 3.24023 c 0,1.07632 0.86703,1.94141 1.943356,1.94141 z" sodipodi:nodetypes="cccccssscc"></path>
</svg>
