<?xml version="1.0" encoding="UTF-8" standalone="no"?><svg width="700" height="1000" viewBox="0 0 699.99999 1000" version="1.1" id="svg5" sodipodi:docname="template.svg" inkscape:version="1.3 (0e150ed6c4, 2023-07-21)" xmlns:inkscape="http://www.inkscape.org/namespaces/inkscape" xmlns:sodipodi="http://sodipodi.sourceforge.net/DTD/sodipodi-0.dtd" xmlns="http://www.w3.org/2000/svg" xmlns:svg="http://www.w3.org/2000/svg">
  <defs id="defs1"></defs>
  <sodipodi:namedview id="namedview1" pagecolor="#ffffff" bordercolor="#000000" borderopacity="0.25" inkscape:showpageshadow="2" inkscape:pageopacity="0.0" inkscape:pagecheckerboard="0" inkscape:deskcolor="#d1d1d1" inkscape:zoom="0.54941075" inkscape:cx="99.197186" inkscape:cy="610.65424" inkscape:window-width="1920" inkscape:window-height="1094" inkscape:window-x="-11" inkscape:window-y="-11" inkscape:window-maximized="1" inkscape:current-layer="svg5"></sodipodi:namedview>
  <path id="seg1" style="fill:#ff00ff;fill-opacity:0.533333;stroke:#000000;stroke-width:4.19375" d="m 313.37932,419.93091 c 27.23877,-55.48685 54.64325,-110.89458 81.94576,-166.351 4.39645,-10.90719 12.69764,-20.95676 24.75965,-23.37539 13.68891,-3.88063 25.7709,4.72526 37.56382,10.21188 16.82922,6.24452 25.95008,27.18392 18.29715,43.58645 -27.23876,55.48685 -54.64325,110.89458 -81.94575,166.351 -4.52409,11.42519 -13.57881,21.76816 -26.29511,23.69882 -14.30576,3.08427 -26.38489,-6.44823 -38.74667,-11.87515 -15.39188,-7.1825 -22.62462,-26.80271 -15.57885,-42.24661 z" sodipodi:nodetypes="ccccccccc"></path>
  <path id="seg2" style="fill:#ff00ff;fill-opacity:0.533333;stroke:#000000;stroke-width:4.19375" d="m 165.38068,673.93154 c 27.23876,-55.48685 54.64325,-110.89459 81.94576,-166.35101 4.39644,-10.90718 12.69763,-20.95675 24.75966,-23.37539 13.68891,-3.88062 25.7709,4.72527 37.56382,10.21189 16.82921,6.24452 25.95006,27.18392 18.29714,43.58644 -27.23876,55.48685 -54.64325,110.89459 -81.94576,166.35101 -4.52409,11.42519 -13.5788,21.76815 -26.29511,23.69881 -14.30575,3.08427 -26.38488,-6.44823 -38.74666,-11.87514 -15.39187,-7.18251 -22.62462,-26.80271 -15.57885,-42.24661 z" sodipodi:nodetypes="ccccccccc"></path>
  
  <path id="seg4" style="fill:#ff00ff;fill-opacity:0.533333;stroke:#000000;stroke-width:3.86232" d="m 471.55478,491.93115 c 11.69969,0.16498 23.43343,-0.35799 35.10817,0.31715 14.28206,1.80613 24.86792,15.99829 23.40588,30.15885 -0.0238,53.15442 0.0477,106.31005 -0.0358,159.46373 -0.32935,15.2093 -14.93431,27.68041 -29.96479,26.19795 -11.3597,-0.25385 -22.79279,0.57658 -34.09418,-0.55927 -13.67574,-2.45416 -23.4143,-16.2481 -22.0429,-29.91673 0.0238,-53.15442 -0.0477,-106.31005 0.0358,-159.46373 0.42926,-14.33637 13.2398,-26.50415 27.58782,-26.19795 z"></path>
  <path id="seg5" style="fill:#ff00ff;fill-opacity:0.533333;stroke:#000000;stroke-width:3.86232" d="m 471.55478,251.93115 c 11.69969,0.16498 23.43343,-0.35799 35.10817,0.31715 14.28206,1.80613 24.86792,15.99829 23.40588,30.15885 -0.0238,53.15442 0.0477,106.31005 -0.0358,159.46373 -0.32935,15.2093 -14.93431,27.68041 -29.96479,26.19795 -11.3597,-0.25385 -22.79279,0.57658 -34.09418,-0.55927 -13.67574,-2.45416 -23.4143,-16.2481 -22.0429,-29.91673 0.0238,-53.15442 -0.0477,-106.31005 0.0358,-159.46373 0.42926,-14.33637 13.2398,-26.50415 27.58782,-26.19795 z"></path>
  
  <path id="seg7" style="fill:#ff00ff;fill-opacity:0.533333;stroke:#000000;stroke-width:3.86232" d="m 141.55479,251.93115 c 11.69969,0.16498 23.43342,-0.35799 35.10817,0.31715 14.28206,1.80613 24.86792,15.99829 23.40588,30.15885 -0.0238,53.15442 0.0477,106.31005 -0.0358,159.46373 -0.32935,15.2093 -14.93431,27.68041 -29.96479,26.19795 -11.3597,-0.25385 -22.79279,0.57658 -34.09418,-0.55927 -13.67574,-2.45416 -23.4143,-16.2481 -22.0429,-29.91673 0.0239,-53.15442 -0.0477,-106.31005 0.0358,-159.46373 0.42926,-14.33637 13.2398,-26.50415 27.58782,-26.19795 z"></path>
  <path id="seg8" style="fill:#ff00ff;fill-opacity:0.533333;stroke:#000000;stroke-width:3.86232" d="m 141.55479,491.93115 c 11.69969,0.16498 23.43342,-0.35799 35.10817,0.31715 14.28206,1.80613 24.86792,15.99829 23.40588,30.15885 -0.0238,53.15442 0.0477,106.31005 -0.0358,159.46373 -0.32935,15.2093 -14.93431,27.68041 -29.96479,26.19795 -11.3597,-0.25385 -22.79279,0.57658 -34.09418,-0.55927 -13.67574,-2.45416 -23.4143,-16.2481 -22.0429,-29.91673 0.0239,-53.15442 -0.0477,-106.31005 0.0358,-159.46373 0.42926,-14.33637 13.2398,-26.50415 27.58782,-26.19795 z"></path>
  
  <path id="seg10" style="fill:#ff00ff;fill-opacity:0.533333;stroke:#000000;stroke-width:4.19375" d="m 507.90314,464.79036 c -0.43146,14.91953 2.78786,32.20219 -9.55467,43.55811 -12.85123,13.37639 -32.06402,8.67836 -48.55901,9.55467 -107.44896,-0.11187 -214.90913,0.2239 -322.35106,-0.16818 -37.487608,-2.59811 -36.399644,-64.23212 -17.46743,-78.19061 13.35739,-11.03194 31.22558,-6.47667 47.08691,-7.44749 107.16651,0.11186 214.34424,-0.2239 321.50372,0.16818 16.28344,1.32438 29.68832,16.18772 29.34154,32.52532 z" sodipodi:nodetypes="cccccccc"></path>
  <path id="rect1-5" style="fill:#ff00ff;fill-opacity:0.533333;stroke:#000000;stroke-width:3.67376" d="m 59.605469,143.02094 v 7.07865 L 59.036678,822 H 67.16495 L 67.613281,150.25 H 519.90234 c 1.07633,0 1.94336,-0.86508 1.94336,-1.94141 v -3.24023 c 0,-1.07632 -0.86703,-1.94141 -1.94336,-1.94141 z" sodipodi:nodetypes="cccccssscc"></path>
  <path id="path3" style="fill:#ff00ff;fill-opacity:0.533333;stroke:#000000;stroke-width:3.67376" d="m 561.27535,815.99958 v -7.07865 l 0.56879,-671.90041 h -8.12827 l -0.44833,671.75 H 100.97848 c -1.076326,0 -1.943356,0.86508 -1.943356,1.94141 v 3.24023 c 0,1.07632 0.86703,1.94141 1.943356,1.94141 z" sodipodi:nodetypes="cccccssscc"></path>
</svg>
