<?xml version="1.0" encoding="UTF-8" standalone="no"?><svg width="700" height="1000" viewBox="0 0 699.99999 1000" version="1.1" id="svg5" sodipodi:docname="template.svg" inkscape:version="1.3 (0e150ed6c4, 2023-07-21)" xmlns:inkscape="http://www.inkscape.org/namespaces/inkscape" xmlns:sodipodi="http://sodipodi.sourceforge.net/DTD/sodipodi-0.dtd" xmlns="http://www.w3.org/2000/svg" xmlns:svg="http://www.w3.org/2000/svg">
  <defs id="defs1"></defs>
  <sodipodi:namedview id="namedview1" pagecolor="#ffffff" bordercolor="#000000" borderopacity="0.25" inkscape:showpageshadow="2" inkscape:pageopacity="0.0" inkscape:pagecheckerboard="0" inkscape:deskcolor="#d1d1d1" inkscape:zoom="0.54941075" inkscape:cx="99.197186" inkscape:cy="610.65424" inkscape:window-width="1920" inkscape:window-height="1094" inkscape:window-x="-11" inkscape:window-y="-11" inkscape:window-maximized="1" inkscape:current-layer="svg5"></sodipodi:namedview>
  
  <path id="seg2" style="fill:#ff00ff;fill-opacity:0.533333;stroke:#000000;stroke-width:4.19375" d="m 165.38068,673.93154 c 27.23876,-55.48685 54.64325,-110.89459 81.94576,-166.35101 4.39644,-10.90718 12.69763,-20.95675 24.75966,-23.37539 13.68891,-3.88062 25.7709,4.72527 37.56382,10.21189 16.82921,6.24452 25.95006,27.18392 18.29714,43.58644 -27.23876,55.48685 -54.64325,110.89459 -81.94576,166.35101 -4.52409,11.42519 -13.5788,21.76815 -26.29511,23.69881 -14.30575,3.08427 -26.38488,-6.44823 -38.74666,-11.87514 -15.39187,-7.18251 -22.62462,-26.80271 -15.57885,-42.24661 z" sodipodi:nodetypes="ccccccccc"></path>
  <path id="seg3" style="fill:#ff00ff;fill-opacity:0.533333;stroke:#000000;stroke-width:4.19375" d="m 449.90314,734.79036 c -0.62651,12.53875 2.29909,26.11259 -4.7201,37.39693 -6.57077,11.45391 -20.13827,16.86527 -32.92585,15.71582 -62.38454,-0.0282 -124.7705,0.0565 -187.15416,-0.0424 -17.9738,-0.39054 -32.73621,-17.63251 -31.00615,-35.40247 0.38528,-12.61245 -2.12814,-26.62539 6.47855,-37.25304 7.22663,-10.3189 20.20445,-14.07929 32.26794,-13.10836 62.01769,0.0282 124.0368,-0.0565 186.05361,0.0424 16.96758,0.50804 31.36855,15.66975 31.00616,32.65112 z"></path>
  <path id="seg4" style="fill:#ff00ff;fill-opacity:0.533333;stroke:#000000;stroke-width:3.86232" d="m 471.55478,491.93115 c 11.69969,0.16498 23.43343,-0.35799 35.10817,0.31715 14.28206,1.80613 24.86792,15.99829 23.40588,30.15885 -0.0238,53.15442 0.0477,106.31005 -0.0358,159.46373 -0.32935,15.2093 -14.93431,27.68041 -29.96479,26.19795 -11.3597,-0.25385 -22.79279,0.57658 -34.09418,-0.55927 -13.67574,-2.45416 -23.4143,-16.2481 -22.0429,-29.91673 0.0238,-53.15442 -0.0477,-106.31005 0.0358,-159.46373 0.42926,-14.33637 13.2398,-26.50415 27.58782,-26.19795 z"></path>
  <path id="seg5" style="fill:#ff00ff;fill-opacity:0.533333;stroke:#000000;stroke-width:3.86232" d="m 471.55478,251.93115 c 11.69969,0.16498 23.43343,-0.35799 35.10817,0.31715 14.28206,1.80613 24.86792,15.99829 23.40588,30.15885 -0.0238,53.15442 0.0477,106.31005 -0.0358,159.46373 -0.32935,15.2093 -14.93431,27.68041 -29.96479,26.19795 -11.3597,-0.25385 -22.79279,0.57658 -34.09418,-0.55927 -13.67574,-2.45416 -23.4143,-16.2481 -22.0429,-29.91673 0.0238,-53.15442 -0.0477,-106.31005 0.0358,-159.46373 0.42926,-14.33637 13.2398,-26.50415 27.58782,-26.19795 z"></path>
  
  <path id="seg7" style="fill:#ff00ff;fill-opacity:0.533333;stroke:#000000;stroke-width:3.86232" d="m 141.55479,251.93115 c 11.69969,0.16498 23.43342,-0.35799 35.10817,0.31715 14.28206,1.80613 24.86792,15.99829 23.40588,30.15885 -0.0238,53.15442 0.0477,106.31005 -0.0358,159.46373 -0.32935,15.2093 -14.93431,27.68041 -29.96479,26.19795 -11.3597,-0.25385 -22.79279,0.57658 -34.09418,-0.55927 -13.67574,-2.45416 -23.4143,-16.2481 -22.0429,-29.91673 0.0239,-53.15442 -0.0477,-106.31005 0.0358,-159.46373 0.42926,-14.33637 13.2398,-26.50415 27.58782,-26.19795 z"></path>
  <path id="seg8" style="fill:#ff00ff;fill-opacity:0.533333;stroke:#000000;stroke-width:3.86232" d="m 141.55479,491.93115 c 11.69969,0.16498 23.43342,-0.35799 35.10817,0.31715 14.28206,1.80613 24.86792,15.99829 23.40588,30.15885 -0.0238,53.15442 0.0477,106.31005 -0.0358,159.46373 -0.32935,15.2093 -14.93431,27.68041 -29.96479,26.19795 -11.3597,-0.25385 -22.79279,0.57658 -34.09418,-0.55927 -13.67574,-2.45416 -23.4143,-16.2481 -22.0429,-29.91673 0.0239,-53.15442 -0.0477,-106.31005 0.0358,-159.46373 0.42926,-14.33637 13.2398,-26.50415 27.58782,-26.19795 z"></path>
  
  
  <path id="rect1-5" style="fill:#ff00ff;fill-opacity:0.533333;stroke:#000000;stroke-width:3.67376" d="m 59.605469,143.02094 v 7.07865 L 59.036678,822 H 67.16495 L 67.613281,150.25 H 519.90234 c 1.07633,0 1.94336,-0.86508 1.94336,-1.94141 v -3.24023 c 0,-1.07632 -0.86703,-1.94141 -1.94336,-1.94141 z" sodipodi:nodetypes="cccccssscc"></path>
  <path id="path3" style="fill:#ff00ff;fill-opacity:0.533333;stroke:#000000;stroke-width:3.67376" d="m 561.27535,815.99958 v -7.07865 l 0.56879,-671.90041 h -8.12827 l -0.44833,671.75 H 100.97848 c -1.076326,0 -1.943356,0.86508 -1.943356,1.94141 v 3.24023 c 0,1.07632 0.86703,1.94141 1.943356,1.94141 z" sodipodi:nodetypes="cccccssscc"></path>
</svg>
